<svg width="1920" height="42" viewBox="0 0 1920 42" fill="none" xmlns="http://www.w3.org/2000/svg">
<ellipse cx="1896.16" cy="20.7643" rx="20.7633" ry="22.9532" transform="rotate(90 1896.16 20.7643)" fill="#f5ece5"/>
<ellipse cx="1851.37" cy="20.7643" rx="20.7633" ry="22.9532" transform="rotate(90 1851.37 20.7643)" fill="#f5ece5"/>
<ellipse cx="1806.58" cy="20.7643" rx="20.7633" ry="22.9532" transform="rotate(90 1806.58 20.7643)" fill="#f5ece5"/>
<ellipse cx="1761.8" cy="20.7643" rx="20.7633" ry="22.9532" transform="rotate(90 1761.8 20.7643)" fill="#f5ece5"/>
<ellipse cx="1717.01" cy="20.7643" rx="20.7633" ry="22.9532" transform="rotate(90 1717.01 20.7643)" fill="#f5ece5"/>
<ellipse cx="1672.22" cy="20.7643" rx="20.7633" ry="22.9532" transform="rotate(90 1672.22 20.7643)" fill="#f5ece5"/>
<ellipse cx="1627.44" cy="20.7643" rx="20.7633" ry="22.9532" transform="rotate(90 1627.44 20.7643)" fill="#f5ece5"/>
<ellipse cx="1582.65" cy="20.7643" rx="20.7633" ry="22.9532" transform="rotate(90 1582.65 20.7643)" fill="#f5ece5"/>
<ellipse cx="1537.86" cy="20.7643" rx="20.7633" ry="22.9532" transform="rotate(90 1537.86 20.7643)" fill="#f5ece5"/>
<ellipse cx="1491.96" cy="20.7643" rx="20.7633" ry="22.9532" transform="rotate(90 1491.96 20.7643)" fill="#f5ece5"/>
<ellipse cx="1446.05" cy="20.7643" rx="20.7633" ry="22.9532" transform="rotate(90 1446.05 20.7643)" fill="#f5ece5"/>
<ellipse cx="1400.14" cy="20.7643" rx="20.7633" ry="22.9532" transform="rotate(90 1400.14 20.7643)" fill="#f5ece5"/>
<ellipse cx="1354.24" cy="20.7643" rx="20.7633" ry="22.9532" transform="rotate(90 1354.24 20.7643)" fill="#f5ece5"/>
<ellipse cx="1308.33" cy="20.7643" rx="20.7633" ry="22.9532" transform="rotate(90 1308.33 20.7643)" fill="#f5ece5"/>
<ellipse cx="1262.42" cy="20.7643" rx="20.7633" ry="22.9532" transform="rotate(90 1262.42 20.7643)" fill="#f5ece5"/>
<ellipse cx="1216.52" cy="20.7643" rx="20.7633" ry="22.9532" transform="rotate(90 1216.52 20.7643)" fill="#f5ece5"/>
<ellipse cx="1170.61" cy="20.7643" rx="20.7633" ry="22.9532" transform="rotate(90 1170.61 20.7643)" fill="#f5ece5"/>
<ellipse cx="1124.71" cy="20.7643" rx="20.7633" ry="22.9532" transform="rotate(90 1124.71 20.7643)" fill="#f5ece5"/>
<ellipse cx="1078.8" cy="20.7648" rx="20.7633" ry="22.9532" transform="rotate(90 1078.8 20.7648)" fill="#f5ece5"/>
<ellipse cx="1032.89" cy="20.7648" rx="20.7633" ry="22.9532" transform="rotate(90 1032.89 20.7648)" fill="#f5ece5"/>
<ellipse cx="986.986" cy="20.7648" rx="20.7633" ry="22.9532" transform="rotate(90 986.986 20.7648)" fill="#f5ece5"/>
<ellipse cx="941.08" cy="20.7648" rx="20.7633" ry="22.9532" transform="rotate(90 941.08 20.7648)" fill="#f5ece5"/>
<ellipse cx="895.174" cy="20.7648" rx="20.7633" ry="22.9532" transform="rotate(90 895.174 20.7648)" fill="#f5ece5"/>
<ellipse cx="849.267" cy="20.7648" rx="20.7633" ry="22.9532" transform="rotate(90 849.267 20.7648)" fill="#f5ece5"/>
<ellipse cx="803.36" cy="20.7648" rx="20.7633" ry="22.9532" transform="rotate(90 803.36 20.7648)" fill="#f5ece5"/>
<ellipse cx="757.454" cy="20.7648" rx="20.7633" ry="22.9532" transform="rotate(90 757.454 20.7648)" fill="#f5ece5"/>
<ellipse cx="711.548" cy="20.7648" rx="20.7633" ry="22.9532" transform="rotate(90 711.548 20.7648)" fill="#f5ece5"/>
<ellipse cx="665.642" cy="20.7648" rx="20.7633" ry="22.9532" transform="rotate(90 665.642 20.7648)" fill="#f5ece5"/>
<ellipse cx="619.736" cy="20.7643" rx="20.7633" ry="22.9532" transform="rotate(90 619.736 20.7643)" fill="#f5ece5"/>
<ellipse cx="573.829" cy="20.7643" rx="20.7633" ry="22.9532" transform="rotate(90 573.829 20.7643)" fill="#f5ece5"/>
<ellipse cx="527.923" cy="20.7643" rx="20.7633" ry="22.9532" transform="rotate(90 527.923 20.7643)" fill="#f5ece5"/>
<ellipse cx="482.017" cy="20.7643" rx="20.7633" ry="22.9532" transform="rotate(90 482.017 20.7643)" fill="#f5ece5"/>
<ellipse cx="436.11" cy="20.7643" rx="20.7633" ry="22.9532" transform="rotate(90 436.11 20.7643)" fill="#f5ece5"/>
<ellipse cx="390.204" cy="20.7643" rx="20.7633" ry="22.9532" transform="rotate(90 390.204 20.7643)" fill="#f5ece5"/>
<ellipse cx="344.298" cy="20.7643" rx="20.7633" ry="22.9532" transform="rotate(90 344.298 20.7643)" fill="#f5ece5"/>
<ellipse cx="298.391" cy="20.7643" rx="20.7633" ry="22.9532" transform="rotate(90 298.391 20.7643)" fill="#f5ece5"/>
<ellipse cx="252.485" cy="20.7643" rx="20.7633" ry="22.9532" transform="rotate(90 252.485 20.7643)" fill="#f5ece5"/>
<ellipse cx="206.579" cy="20.7643" rx="20.7633" ry="22.9532" transform="rotate(90 206.579 20.7643)" fill="#f5ece5"/>
<ellipse cx="160.672" cy="20.7643" rx="20.7633" ry="22.9532" transform="rotate(90 160.672 20.7643)" fill="#f5ece5"/>
<ellipse cx="114.766" cy="20.7643" rx="20.7633" ry="22.9532" transform="rotate(90 114.766 20.7643)" fill="#f5ece5"/>
<ellipse cx="68.8593" cy="20.7643" rx="20.7633" ry="22.9532" transform="rotate(90 68.8593 20.7643)" fill="#f5ece5"/>
<ellipse cx="22.9534" cy="20.7643" rx="20.7633" ry="22.9532" transform="rotate(90 22.9534 20.7643)" fill="#f5ece5"/>
</svg>
