<svg width="240" height="112" viewBox="0 0 240 112" fill="none" xmlns="http://www.w3.org/2000/svg">
<rect x="3.36816" y="4.94116" width="231.579" height="101.294" rx="4" fill="#F4EEE5"/>
<path fill-rule="evenodd" clip-rule="evenodd" d="M14.3156 7.04998C14.2881 10.893 11.094 14 7.15789 14C3.2047 14 0 10.866 0 7C0 3.13401 3.2047 0 7.15789 0C11.094 0 14.2881 3.10703 14.3156 6.95002C14.3431 3.10703 17.5372 0 21.4733 0C25.4265 0 28.6312 3.13401 28.6312 7C28.6312 10.866 25.4265 14 21.4733 14C17.5372 14 14.3431 10.893 14.3156 7.04998ZM7.15789 28C3.2047 28 0 24.866 0 21C0 17.134 3.2047 14 7.15789 14C11.1111 14 14.3158 17.134 14.3158 21C14.3158 24.866 11.1111 28 7.15789 28ZM7.15789 42C3.2047 42 0 38.866 0 35C0 31.134 3.2047 28 7.15789 28C11.1111 28 14.3158 31.134 14.3158 35C14.3158 38.866 11.1111 42 7.15789 42ZM7.15789 56C3.2047 56 0 52.866 0 49C0 45.134 3.2047 42 7.15789 42C11.1111 42 14.3158 45.134 14.3158 49C14.3158 52.866 11.1111 56 7.15789 56ZM7.15789 70C3.2047 70 0 66.866 0 63C0 59.134 3.2047 56 7.15789 56C11.1111 56 14.3158 59.134 14.3158 63C14.3158 66.866 11.1111 70 7.15789 70ZM7.15789 84C3.2047 84 0 80.866 0 77C0 73.134 3.2047 70 7.15789 70C11.1111 70 14.3158 73.134 14.3158 77C14.3158 80.866 11.1111 84 7.15789 84ZM7.15789 84C3.2047 84 0 87.134 0 91C0 94.866 3.2047 98 7.15789 98C11.1111 98 14.3158 94.866 14.3158 91C14.3158 87.134 11.1111 84 7.15789 84ZM42.1055 7.01926C42.0955 10.8764 39.0832 14 35.3687 14C31.648 14 28.6318 10.866 28.6318 7C28.6318 3.13401 31.648 0 35.3687 0C39.0832 0 42.0955 3.1236 42.1055 6.98074C42.1161 3.12361 45.3167 0 49.2634 0C53.1995 0 56.3936 3.10707 56.4211 6.95008C56.4485 3.10707 59.6426 0 63.5788 0C67.532 0 70.7367 3.13401 70.7367 7C70.7367 10.866 67.532 14 63.5788 14C59.6426 14 56.4485 10.8929 56.4211 7.04992C56.3936 10.8929 53.1995 14 49.2634 14C45.3167 14 42.1161 10.8764 42.1055 7.01926ZM77.8952 14C81.8293 14 85.0221 10.8962 85.0529 7.05594C85.0818 10.8962 88.0868 14 91.7895 14C95.5102 14 98.5263 10.866 98.5263 7C98.5263 10.866 101.731 14 105.684 14C109.621 14 112.815 10.8921 112.842 7.04832C112.869 10.8921 116.063 14 120 14C123.953 14 127.158 10.866 127.158 7C127.158 3.13401 123.953 0 120 0C116.063 0 112.869 3.10793 112.842 6.95168C112.815 3.10793 109.621 0 105.684 0C101.731 0 98.5263 3.13401 98.5263 7C98.5263 3.13401 95.5102 0 91.7895 0C88.0868 0 85.0818 3.10382 85.0529 6.94406C85.0221 3.10382 81.8293 0 77.8952 0C73.942 0 70.7373 3.13401 70.7373 7C70.7373 10.866 73.942 14 77.8952 14ZM134.316 14C138.252 14 141.446 10.893 141.474 7.05013C141.5 10.8931 144.506 14 148.21 14C151.931 14 154.947 10.866 154.947 7C154.947 3.13401 151.931 0 148.21 0C144.506 0 141.5 3.10695 141.474 6.94987C141.446 3.10695 138.252 0 134.316 0C130.363 0 127.158 3.13401 127.158 7C127.158 10.866 130.363 14 134.316 14ZM162.105 14C166.039 14 169.232 10.896 169.263 7.05557C169.293 10.896 172.486 14 176.421 14C180.374 14 183.578 10.866 183.578 7C183.578 3.13401 180.374 0 176.421 0C172.486 0 169.293 3.10402 169.263 6.94443C169.232 3.10402 166.039 0 162.105 0C158.152 0 154.947 3.13401 154.947 7C154.947 10.866 158.152 14 162.105 14ZM190.737 14C194.673 14 197.867 10.8936 197.895 7.05121C197.921 10.8936 200.927 14 204.631 14C208.346 14 211.359 10.8756 211.368 7.01771C211.378 10.8755 214.579 14 218.526 14C222.479 14 225.684 10.866 225.684 7C225.684 3.13401 222.479 0 218.526 0C214.579 0 211.378 3.12445 211.368 6.98229C211.359 3.12444 208.346 0 204.631 0C200.927 0 197.921 3.10636 197.895 6.94879C197.867 3.10637 194.673 0 190.737 0C186.784 0 183.579 3.13401 183.579 7C183.579 10.866 186.784 14 190.737 14ZM240 7C240 10.866 236.796 14 232.842 14C228.889 14 225.685 10.866 225.685 7C225.685 3.13401 228.889 0 232.842 0C236.796 0 240 3.13401 240 7ZM232.842 28C236.796 28 240 24.866 240 21C240 17.134 236.796 14 232.842 14C228.889 14 225.685 17.134 225.685 21C225.685 24.866 228.889 28 232.842 28ZM232.842 42C236.796 42 240 38.866 240 35C240 31.134 236.796 28 232.842 28C228.889 28 225.685 31.134 225.685 35C225.685 38.866 228.889 42 232.842 42ZM232.842 56C236.796 56 240 52.866 240 49C240 45.134 236.796 42 232.842 42C228.889 42 225.685 45.134 225.685 49C225.685 52.866 228.889 56 232.842 56ZM232.842 70C236.796 70 240 66.866 240 63C240 59.134 236.796 56 232.842 56C228.889 56 225.685 59.134 225.685 63C225.685 66.866 228.889 70 232.842 70ZM232.842 84C236.796 84 240 80.866 240 77C240 73.134 236.796 70 232.842 70C228.889 70 225.685 73.134 225.685 77C225.685 80.866 228.889 84 232.842 84ZM232.842 98C236.796 98 240 94.866 240 91C240 87.134 236.796 84 232.842 84C228.889 84 225.685 87.134 225.685 91C225.685 94.866 228.889 98 232.842 98ZM232.842 98C236.796 98 240 101.134 240 105C240 108.866 236.796 112 232.842 112C228.889 112 225.685 108.866 225.685 105C225.685 101.134 228.889 98 232.842 98Z" fill="#F4EEE5"/>
<path fill-rule="evenodd" clip-rule="evenodd" d="M7.15789 111.177C11.094 111.177 14.2881 108.069 14.3156 104.226C14.3431 108.069 17.5372 111.177 21.4733 111.177C25.4265 111.177 28.6312 108.043 28.6312 104.177C28.6312 100.311 25.4265 97.1765 21.4733 97.1765C17.5372 97.1765 14.3431 100.284 14.3156 104.127C14.2881 100.284 11.094 97.1765 7.15789 97.1765C3.2047 97.1765 0 100.311 0 104.177C0 108.043 3.2047 111.177 7.15789 111.177ZM35.3687 111.177C39.0832 111.177 42.0955 108.053 42.1055 104.196C42.1161 108.053 45.3167 111.177 49.2634 111.177C53.1995 111.177 56.3936 108.069 56.4211 104.226C56.4485 108.069 59.6426 111.177 63.5788 111.177C67.532 111.177 70.7367 108.043 70.7367 104.177C70.7367 100.311 67.532 97.1765 63.5788 97.1765C59.6426 97.1765 56.4485 100.284 56.4211 104.127C56.3936 100.284 53.1995 97.1765 49.2634 97.1765C45.3167 97.1765 42.1161 100.3 42.1055 104.157C42.0955 100.3 39.0832 97.1765 35.3687 97.1765C31.648 97.1765 28.6318 100.311 28.6318 104.177C28.6318 108.043 31.648 111.177 35.3687 111.177ZM85.0529 104.232C85.0221 108.073 81.8293 111.177 77.8952 111.177C73.942 111.177 70.7373 108.043 70.7373 104.177C70.7373 100.311 73.942 97.1765 77.8952 97.1765C81.8293 97.1765 85.0221 100.28 85.0529 104.121C85.0818 100.28 88.0868 97.1765 91.7895 97.1765C95.5102 97.1765 98.5263 100.311 98.5263 104.177C98.5263 108.043 95.5102 111.177 91.7895 111.177C88.0868 111.177 85.0818 108.073 85.0529 104.232ZM98.5263 104.177C98.5263 100.311 101.731 97.1765 105.684 97.1765C109.621 97.1765 112.815 100.284 112.842 104.128C112.869 100.284 116.063 97.1765 120 97.1765C123.953 97.1765 127.158 100.311 127.158 104.177C127.158 108.043 123.953 111.177 120 111.177C116.063 111.177 112.869 108.069 112.842 104.225C112.815 108.069 109.621 111.177 105.684 111.177C101.731 111.177 98.5263 108.043 98.5263 104.177ZM141.474 104.227C141.446 108.07 138.252 111.177 134.316 111.177C130.363 111.177 127.158 108.043 127.158 104.177C127.158 100.311 130.363 97.1765 134.316 97.1765C138.252 97.1765 141.446 100.283 141.474 104.126C141.5 100.283 144.506 97.1765 148.21 97.1765C151.931 97.1765 154.947 100.311 154.947 104.177C154.947 108.043 151.931 111.177 148.21 111.177C144.506 111.177 141.5 108.07 141.474 104.227ZM169.263 104.232C169.232 108.072 166.039 111.177 162.105 111.177C158.152 111.177 154.947 108.043 154.947 104.177C154.947 100.311 158.152 97.1765 162.105 97.1765C166.039 97.1765 169.232 100.281 169.263 104.121C169.293 100.281 172.486 97.1765 176.421 97.1765C180.374 97.1765 183.578 100.311 183.578 104.177C183.578 108.043 180.374 111.177 176.421 111.177C172.486 111.177 169.293 108.072 169.263 104.232ZM197.895 104.228C197.867 108.07 194.673 111.177 190.737 111.177C186.784 111.177 183.579 108.043 183.579 104.177C183.579 100.311 186.784 97.1765 190.737 97.1765C194.673 97.1765 197.867 100.283 197.895 104.125C197.921 100.283 200.927 97.1765 204.631 97.1765C208.346 97.1765 211.359 100.301 211.368 104.159C211.378 100.301 214.579 97.1765 218.526 97.1765C222.479 97.1765 225.684 100.311 225.684 104.177C225.684 108.043 222.479 111.177 218.526 111.177C214.579 111.177 211.378 108.052 211.368 104.194C211.359 108.052 208.346 111.177 204.631 111.177C200.927 111.177 197.921 108.07 197.895 104.228ZM232.842 111.177C236.796 111.177 240 108.043 240 104.177C240 100.311 236.796 97.1765 232.842 97.1765C228.889 97.1765 225.685 100.311 225.685 104.177C225.685 108.043 228.889 111.177 232.842 111.177Z" fill="#F4EEE5"/>
</svg>
