<svg width="1920" height="1100" viewBox="0 0 1920 1100" fill="none" xmlns="http://www.w3.org/2000/svg">
<path d="M1920 0H0V1080H1.00671C1.30456 1091.09 11.485 1100 24 1100C35.0591 1100 44.2952 1093.04 46.5 1083.77C48.7048 1093.04 57.9409 1100 69 1100C79.3614 1100 88.1225 1093.89 91 1085.5C93.8775 1093.89 102.639 1100 113 1100C124.059 1100 133.295 1093.04 135.5 1083.77C137.705 1093.04 146.941 1100 158 1100C169.059 1100 178.295 1093.04 180.5 1083.77C182.705 1093.04 191.941 1100 203 1100C214.059 1100 223.295 1093.04 225.5 1083.77C227.705 1093.04 236.941 1100 248 1100C259.059 1100 268.295 1093.04 270.5 1083.77C272.705 1093.04 281.941 1100 293 1100C303.361 1100 312.122 1093.89 315 1085.5C317.878 1093.89 326.639 1100 337 1100C348.059 1100 357.295 1093.04 359.5 1083.77C361.705 1093.04 370.941 1100 382 1100C394.515 1100 404.695 1091.09 404.993 1080H405.007C405.305 1091.09 415.485 1100 428 1100C440.515 1100 450.695 1091.09 450.993 1080H451.007C451.305 1091.09 461.485 1100 474 1100C486.515 1100 496.695 1091.09 496.993 1080H497.007C497.305 1091.09 507.485 1100 520 1100C532.515 1100 542.695 1091.09 542.993 1080H543.007C543.305 1091.09 553.485 1100 566 1100C578.515 1100 588.695 1091.09 588.993 1080H589.007C589.305 1091.09 599.485 1100 612 1100C624.515 1100 634.695 1091.09 634.993 1080H635.007C635.305 1091.09 645.485 1100 658 1100C670.515 1100 680.695 1091.09 680.993 1080H681.007C681.305 1091.09 691.485 1100 704 1100C715.059 1100 724.295 1093.04 726.5 1083.77C728.705 1093.04 737.941 1100 749 1100C761.515 1100 771.695 1091.09 771.993 1080H772.007C772.305 1091.09 782.485 1100 795 1100C807.515 1100 817.695 1091.09 817.993 1080H818.007C818.305 1091.09 828.485 1100 841 1100C853.515 1100 863.695 1091.09 863.993 1080H864.007C864.305 1091.09 874.485 1100 887 1100C899.515 1100 909.695 1091.09 909.993 1080H910.007C910.305 1091.09 920.485 1100 933 1100C945.515 1100 955.695 1091.09 955.993 1080H956.007C956.305 1091.09 966.485 1100 979 1100C991.515 1100 1001.7 1091.09 1001.99 1080H1002.01C1002.3 1091.09 1012.48 1100 1025 1100C1037.52 1100 1047.7 1091.09 1047.99 1080H1048.01C1048.3 1091.09 1058.48 1100 1071 1100C1083.52 1100 1093.7 1091.09 1093.99 1080H1094.01C1094.3 1091.09 1104.48 1100 1117 1100C1129.52 1100 1139.7 1091.09 1139.99 1080H1140.01C1140.3 1091.09 1150.48 1100 1163 1100C1174.06 1100 1183.3 1093.04 1185.5 1083.77C1187.7 1093.04 1196.94 1100 1208 1100C1220.52 1100 1230.7 1091.09 1230.99 1080H1231.01C1231.3 1091.09 1241.48 1100 1254 1100C1266.52 1100 1276.7 1091.09 1276.99 1080H1277.01C1277.3 1091.09 1287.48 1100 1300 1100C1312.52 1100 1322.7 1091.09 1322.99 1080H1323.01C1323.3 1091.09 1333.48 1100 1346 1100C1358.52 1100 1368.7 1091.09 1368.99 1080H1369.01C1369.3 1091.09 1379.48 1100 1392 1100C1404.52 1100 1414.7 1091.09 1414.99 1080H1415.01C1415.3 1091.09 1425.48 1100 1438 1100C1450.52 1100 1460.7 1091.09 1460.99 1080H1461.01C1461.3 1091.09 1471.48 1100 1484 1100C1496.52 1100 1506.7 1091.09 1506.99 1080H1507.01C1507.3 1091.09 1517.48 1100 1530 1100C1542.52 1100 1552.7 1091.09 1552.99 1080H1553.01C1553.3 1091.09 1563.48 1100 1576 1100C1588.52 1100 1598.7 1091.09 1598.99 1080H1599.01C1599.3 1091.09 1609.48 1100 1622 1100C1634.52 1100 1644.7 1091.09 1644.99 1080H1645.01C1645.3 1091.09 1655.48 1100 1668 1100C1679.06 1100 1688.3 1093.04 1690.5 1083.77C1692.7 1093.04 1701.94 1100 1713 1100C1725.52 1100 1735.7 1091.09 1735.99 1080H1736.01C1736.3 1091.09 1746.48 1100 1759 1100C1771.52 1100 1781.7 1091.09 1781.99 1080H1782.01C1782.3 1091.09 1792.48 1100 1805 1100C1817.52 1100 1827.7 1091.09 1827.99 1080H1828.01C1828.3 1091.09 1838.48 1100 1851 1100C1863.52 1100 1873.7 1091.09 1873.99 1080H1874.01C1874.3 1091.09 1884.48 1100 1897 1100C1909.52 1100 1919.7 1091.09 1919.99 1080H1920V0Z" fill="#F7F7F7"/>
</svg>
